# xmcd
#
# Track frame offsets: 
#        150
#        18223
#        30702
#        49433
#        69599
#        89886
#        104546
#        116879
#        131103
#        148611
#        164187
#        178480
#
# Disc length: 2651 seconds
#
# Revision: 0
# Processed by: cddbd v1.5.2PL0 Copyright (c) Steve Scherf et al.
# Submitted via: ExactAudioCopyFreeDBPlugin 1.0
#
DISCID=c30a590c
DTITLE=Pino Daniele - 3 Cd Collection - Cd 3
DYEAR=1900
DGENRE=
TTITLE0=Anna verrà
TTITLE1=Notte che se ne va
TTITLE2=Che male c'è
TTITLE3='O cammello 'nnammurato
TTITLE4=Come un gelato all'equatore
TTITLE5=Stare bene a metà
TTITLE6=Amici come prima
TTITLE7=A me me piace 'o blues
TTITLE8=Stella cometa
TTITLE9=Fatte 'na pizza
TTITLE10=Ma che ho
TTITLE11=Je sto vicino a te (live)
EXTD=
EXTT0=
EXTT1=
EXTT2=
EXTT3=
EXTT4=
EXTT5=
EXTT6=
EXTT7=
EXTT8=
EXTT9=
EXTT10=
EXTT11=
PLAYORDER=
